# xmcd
#
# Track frame offsets:
#	150
#	13393
#	24137
#	37454
#	47790
#	60075
#	73166
#	87005
#	99053
#	109840
#
# Disc length: 1592 seconds
# Revision: 1
# Processed by: cddbd v1.5.2PL0 Copyright (c) Steve Scherf et al.
# Submitted via: dBpowerAMP V12.0
#
DISCID=7906360a
DTITLE=B.B.King - Wails
DYEAR=1959
DGENRE=Blues
TTITLE0=Sweet Thing
TTITLE1=I've Got Papers On You Baby
TTITLE2=Tomorrow Is Another Day
TTITLE3=Come By Here
TTITLE4=The Fool
TTITLE5=I Love You So
TTITLE6=The Woman I Love
TTITLE7=We Can't Make It
TTITLE8=Treat Me Right
TTITLE9=Time To Say Goodbye
EXTD=
EXTT0=
EXTT1=
EXTT2=
EXTT3=
EXTT4=
EXTT5=
EXTT6=
EXTT7=
EXTT8=
EXTT9=
PLAYORDER=
